<?xml version="1.0" standalone="no"?>
<!DOCTYPE svg PUBLIC "-//W3C//DTD SVG 20010904//EN"
 "http://www.w3.org/TR/2001/REC-SVG-20010904/DTD/svg10.dtd">
<svg version="1.0" xmlns="http://www.w3.org/2000/svg"
 width="1920.000000pt" height="1080.000000pt" viewBox="0 0 1920.000000 1080.000000"
 preserveAspectRatio="xMidYMid meet">

<g transform="translate(0.000000,1080.000000) scale(0.100000,-0.100000)"
fill="#000000" stroke="none">
<path d="M13005 9140 c-60 -10 -131 -21 -157 -25 -37 -5 -48 -10 -48 -24 0
-14 11 -19 51 -24 28 -4 62 -13 75 -22 l24 -15 0 -595 c0 -520 -2 -595 -15
-609 -14 -14 -42 -21 -105 -28 -14 -2 -26 -10 -28 -18 -2 -13 29 -15 233 -15
209 0 235 2 235 16 0 12 -13 18 -50 22 -95 11 -87 -24 -95 404 -4 208 -5 507
-1 666 3 158 3 286 -1 286 -5 -1 -57 -9 -118 -19z"/>
<path d="M4970 9081 c0 -14 8 -22 28 -27 15 -3 45 -11 67 -18 l40 -13 8 -144
c4 -79 6 -346 5 -593 l-4 -449 -22 -17 c-13 -11 -49 -21 -87 -25 -45 -5 -65
-12 -65 -21 0 -11 36 -14 198 -14 110 0 240 -3 290 -6 88 -7 92 -6 92 13 0 19
-8 21 -70 25 -56 3 -74 8 -95 28 l-25 23 0 270 0 270 32 -7 c79 -16 141 -18
222 -7 201 27 315 114 353 268 37 151 -27 295 -172 388 -103 66 -117 68 -472
73 -321 4 -323 4 -323 -17z m643 -69 c59 -30 91 -82 108 -176 33 -193 -35
-366 -160 -411 -43 -15 -184 -21 -215 -9 -14 5 -16 43 -16 316 l0 310 118 -4
c98 -2 125 -7 165 -26z"/>
<path d="M10140 8913 c-1 -42 -45 -159 -76 -200 -30 -40 -125 -89 -191 -99
-27 -4 -43 -11 -43 -20 0 -11 20 -14 89 -14 l90 0 3 -332 c3 -359 6 -377 61
-436 51 -55 153 -80 245 -61 69 14 121 62 160 148 24 52 24 55 7 68 -27 19
-31 17 -49 -31 -25 -66 -83 -126 -128 -133 -32 -5 -41 -1 -67 24 -16 16 -34
47 -40 69 -7 24 -11 160 -11 361 l0 322 113 3 112 3 3 29 4 29 -119 -4 -118
-4 2 153 3 152 -25 0 c-21 0 -25 -5 -25 -27z"/>
<path d="M7035 8636 c-75 -18 -151 -64 -227 -135 -121 -113 -163 -218 -156
-386 4 -90 8 -108 41 -175 86 -179 246 -282 437 -283 131 0 240 42 328 127 94
90 145 194 158 320 5 50 -7 171 -19 182 -2 2 -96 -27 -210 -65 -113 -38 -216
-71 -227 -74 -20 -5 -20 -1 -20 237 l0 243 68 -9 c73 -10 155 -43 212 -85 22
-17 29 -20 20 -8 -31 39 -131 94 -200 109 -80 19 -135 19 -205 2z"/>
<path d="M8545 8634 c-33 -7 -92 -16 -131 -20 -63 -6 -71 -9 -67 -25 4 -14 14
-19 38 -19 18 0 47 -3 64 -6 l31 -6 0 -360 0 -359 -42 -19 c-24 -11 -53 -20
-65 -20 -16 0 -23 -6 -23 -20 0 -19 7 -20 225 -20 213 0 225 1 225 19 0 14 -9
20 -42 24 -24 2 -55 9 -69 15 l-27 11 -7 216 c-4 119 -5 232 -2 251 9 52 59
154 97 197 57 66 129 87 163 49 22 -24 22 -29 -8 -64 -37 -44 -34 -88 10 -127
48 -41 92 -42 138 -1 79 69 66 205 -26 274 -20 15 -42 20 -89 20 -102 -1 -170
-47 -242 -167 -40 -68 -42 -66 -52 76 -7 109 0 103 -99 81z"/>
<path d="M6770 8631 c0 -4 11 -6 25 -3 14 2 25 6 25 8 0 2 -11 4 -25 4 -14 0
-25 -4 -25 -9z"/>
<path d="M7430 8630 c0 -6 11 -8 28 -4 39 10 40 14 4 14 -18 0 -32 -5 -32 -10z"/>
<path d="M11480 8627 c-126 -35 -218 -145 -196 -233 11 -44 59 -84 101 -84 73
0 115 43 115 116 0 26 -8 44 -31 67 l-31 31 35 32 c80 74 227 51 273 -42 15
-31 19 -62 19 -154 l0 -115 -120 -7 c-174 -10 -248 -32 -334 -95 -63 -48 -85
-138 -59 -241 23 -94 128 -162 248 -162 61 0 157 48 222 110 l48 46 11 -35
c19 -59 55 -99 100 -111 57 -16 140 3 184 41 35 31 72 109 60 128 -12 21 -33
11 -40 -19 -16 -72 -80 -104 -121 -59 -18 20 -19 40 -19 298 l0 276 -27 51
c-33 62 -84 109 -158 143 -66 30 -205 39 -280 18z m280 -545 c0 -119 -2 -130
-25 -164 -45 -66 -157 -98 -223 -64 -54 28 -75 62 -80 126 -11 152 35 198 223
219 39 5 78 9 88 10 15 1 17 -11 17 -127z"/>
<path d="M6793 8575 c0 -7 8 -10 19 -7 10 2 18 6 18 7 0 1 -8 5 -18 7 -11 3
-19 0 -19 -7z"/>
<path d="M7463 8575 c0 -7 8 -10 19 -7 10 2 18 6 18 7 0 1 -8 5 -18 7 -11 3
-19 0 -19 -7z"/>
<path d="M6540 7990 c0 -11 14 -11 50 0 22 7 21 8 -12 9 -21 1 -38 -3 -38 -9z"/>
<path d="M7620 7989 c0 -5 5 -7 10 -4 6 3 10 8 10 11 0 2 -4 4 -10 4 -5 0 -10
-5 -10 -11z"/>
<path d="M7650 7991 c0 -5 9 -7 20 -4 11 3 20 7 20 9 0 2 -9 4 -20 4 -11 0
-20 -4 -20 -9z"/>
<path d="M6569 7942 c-11 -14 -11 -15 0 -5 7 6 20 9 27 6 8 -3 14 -3 14 0 0
14 -30 14 -41 -1z"/>
<path d="M7080 7591 c0 -9 57 -7 67 3 4 3 -10 6 -30 6 -20 0 -37 -4 -37 -9z"/>
<path d="M7175 7590 c-3 -5 -1 -10 4 -10 6 0 11 5 11 10 0 6 -2 10 -4 10 -3 0
-8 -4 -11 -10z"/>
<path d="M7125 7540 c-3 -6 1 -7 9 -4 18 7 21 14 7 14 -6 0 -13 -4 -16 -10z"/>
<path d="M8600 5865 c-36 -7 -102 -13 -147 -14 -75 -1 -83 -3 -83 -20 0 -16
10 -20 53 -26 28 -4 62 -13 75 -21 22 -14 22 -15 22 -282 l0 -267 -25 38 c-15
21 -47 48 -78 64 -44 23 -64 27 -132 26 -180 -1 -330 -115 -386 -292 -29 -91
-29 -241 0 -331 36 -115 132 -215 233 -245 122 -36 238 -10 339 75 26 22 49
36 53 33 3 -4 6 -21 6 -38 0 -18 3 -47 6 -64 7 -32 8 -32 53 -27 25 3 85 8
134 11 65 5 87 10 87 21 0 9 -11 14 -30 14 -16 0 -40 5 -54 11 -22 10 -25 19
-32 98 -4 47 -4 348 0 669 6 551 5 582 -11 581 -10 -1 -47 -7 -83 -14z m-239
-557 c97 -33 139 -96 151 -228 10 -111 -6 -336 -27 -386 -51 -123 -164 -175
-265 -124 -73 37 -112 129 -126 293 -8 99 9 248 36 320 41 110 132 159 231
125z"/>
<path d="M9855 5348 c-123 -23 -244 -109 -294 -209 -42 -84 -54 -155 -48 -279
5 -119 23 -176 77 -248 79 -104 196 -157 345 -156 125 1 190 27 270 108 33 34
67 74 75 90 14 27 13 29 -15 52 l-30 24 -22 -43 c-57 -112 -150 -177 -255
-177 -69 0 -94 9 -132 46 -56 56 -106 215 -106 338 l0 56 288 2 287 3 -2 70
c-3 134 -57 228 -160 282 -93 49 -173 61 -278 41z m122 -49 c80 -30 122 -108
123 -226 l0 -83 -190 0 -190 0 6 43 c18 127 54 220 100 256 30 24 103 29 151
10z"/>
<path d="M5475 2613 c-27 -7 -102 -17 -165 -21 -93 -6 -115 -10 -118 -23 -2
-12 12 -18 65 -27 42 -7 73 -18 80 -29 10 -12 13 -83 13 -272 l0 -256 -34 37
c-70 76 -173 103 -285 74 -180 -46 -295 -179 -323 -372 -22 -155 16 -296 108
-394 67 -71 136 -103 241 -108 78 -4 88 -2 146 26 35 17 82 48 104 70 l42 38
6 -55 c3 -31 7 -63 8 -71 3 -16 27 -17 190 -5 61 5 87 11 87 20 0 7 -18 14
-47 18 -29 3 -52 12 -61 23 -12 16 -13 121 -10 682 3 364 4 661 4 661 -1 -1
-23 -8 -51 -16z m-236 -591 c33 -20 53 -43 74 -82 26 -52 27 -62 27 -195 0
-170 -11 -279 -35 -325 -22 -44 -71 -97 -107 -116 -66 -34 -169 -3 -215 66
-45 66 -58 132 -58 300 0 170 14 241 61 313 52 80 161 97 253 39z"/>
<path d="M11475 2613 c-27 -7 -102 -17 -165 -21 -93 -6 -115 -10 -118 -23 -2
-12 12 -18 65 -27 42 -7 73 -18 80 -29 10 -12 13 -83 13 -272 l0 -256 -34 37
c-91 99 -242 113 -388 36 -256 -135 -307 -550 -93 -747 71 -64 141 -91 239
-91 61 0 83 5 133 30 33 16 78 47 101 68 l41 38 6 -55 c3 -31 7 -63 8 -71 3
-16 27 -17 190 -5 61 5 87 11 87 20 0 7 -18 14 -47 18 -29 3 -52 12 -61 23
-12 16 -13 121 -10 682 3 364 4 661 4 661 -1 -1 -23 -8 -51 -16z m-236 -591
c33 -20 53 -43 74 -82 26 -52 27 -62 27 -195 0 -246 -16 -321 -84 -393 -42
-45 -77 -62 -128 -62 -59 0 -116 35 -151 91 -75 122 -75 448 1 582 56 99 159
123 261 59z"/>
<path d="M6521 2565 c-89 -75 -44 -218 69 -218 73 0 130 59 130 133 0 24 -10
42 -39 71 -34 34 -45 39 -84 39 -34 0 -53 -6 -76 -25z"/>
<path d="M1530 2544 c0 -7 12 -16 28 -20 15 -3 47 -11 72 -18 l45 -12 3 -581
c1 -354 -2 -591 -7 -607 -11 -28 -60 -46 -128 -46 -37 0 -43 -3 -43 -21 0 -20
4 -21 53 -15 28 3 155 6 280 6 212 0 228 1 225 17 -2 14 -17 19 -58 24 -95 10
-96 11 -103 141 -9 145 -9 482 0 815 l6 263 31 9 c17 5 48 12 69 16 27 4 37
11 37 24 0 18 -14 19 -255 19 -211 0 -255 -2 -255 -14z"/>
<path d="M6625 2114 c-27 -8 -94 -19 -147 -25 -82 -10 -98 -15 -98 -29 0 -13
12 -18 55 -23 30 -3 59 -8 65 -12 6 -4 10 -130 10 -364 0 -405 5 -381 -80
-389 -41 -4 -50 -8 -50 -23 0 -18 12 -19 225 -19 218 0 225 1 225 20 0 17 -7
20 -39 20 -44 0 -91 15 -104 33 -4 7 -5 195 -1 420 4 238 3 406 -2 406 -5 -1
-31 -8 -59 -15z"/>
<path d="M12660 2104 c-201 -54 -370 -284 -370 -504 0 -216 168 -423 381 -470
87 -19 210 -9 294 25 57 23 85 43 146 104 116 117 156 221 147 383 -3 49 -10
94 -15 99 -5 5 -101 -21 -236 -65 l-227 -73 0 244 0 244 48 -6 c96 -14 180
-46 253 -99 8 -6 -1 4 -20 23 -67 63 -201 112 -305 110 -22 0 -66 -7 -96 -15z"/>
<path d="M14185 2105 c-33 -8 -93 -17 -133 -21 -59 -6 -72 -10 -70 -23 2 -11
19 -18 59 -22 31 -3 61 -9 68 -13 8 -5 11 -107 11 -361 l0 -354 -22 -12 c-13
-7 -43 -17 -68 -24 -26 -6 -46 -18 -48 -27 -3 -13 26 -15 228 -16 209 -1 231
0 228 15 -2 11 -21 20 -60 28 -93 18 -88 4 -88 276 0 231 1 240 25 294 52 119
119 185 188 185 28 0 40 -6 54 -26 16 -25 16 -27 -4 -43 -52 -41 -55 -91 -9
-137 81 -81 196 -12 196 118 -1 178 -202 237 -338 98 -27 -27 -62 -75 -79
-106 l-30 -56 -7 78 c-11 128 -18 164 -30 163 -6 -1 -38 -7 -71 -14z"/>
<path d="M17227 2103 c-60 -20 -134 -85 -158 -138 -12 -26 -19 -64 -19 -109 0
-119 56 -181 215 -241 105 -40 181 -84 220 -127 30 -33 35 -45 35 -89 0 -102
-59 -151 -184 -152 -133 0 -219 75 -257 227 -8 35 -16 46 -30 46 -18 0 -19 -8
-17 -147 3 -132 5 -148 21 -151 12 -3 21 6 28 27 l11 30 37 -18 c20 -11 69
-29 110 -41 83 -26 172 -24 271 6 141 42 212 216 144 353 -39 78 -118 134
-273 191 -143 52 -181 90 -181 179 0 44 5 56 33 87 64 70 188 66 263 -10 40
-40 44 -50 70 -174 3 -15 11 -22 22 -20 15 3 17 20 20 141 2 132 2 137 -18
137 -15 0 -20 -7 -20 -24 0 -28 -15 -42 -26 -25 -3 6 -30 22 -58 35 -62 29
-183 32 -259 7z"/>
<path d="M7884 2086 c-201 -74 -294 -206 -294 -417 0 -238 91 -385 278 -448
75 -25 195 -28 270 -6 93 28 244 192 211 231 -34 41 -45 36 -78 -31 -38 -77
-86 -119 -154 -136 -140 -33 -243 33 -309 200 -32 82 -32 255 1 361 38 123
102 210 167 226 47 12 150 -2 193 -27 41 -22 83 -74 96 -116 6 -21 5 -22 -25
-7 -80 40 -160 -69 -118 -161 15 -34 56 -55 107 -55 50 0 104 43 122 97 17 52
7 126 -25 173 -31 48 -115 106 -181 126 -73 21 -188 17 -261 -10z"/>
<path d="M9340 2097 c-126 -35 -218 -145 -196 -233 11 -44 59 -84 101 -84 73
0 115 43 115 116 0 26 -8 44 -31 67 l-31 31 35 32 c80 74 227 51 273 -42 15
-31 19 -62 19 -154 l0 -115 -120 -7 c-174 -10 -248 -32 -334 -95 -63 -48 -85
-138 -59 -241 23 -94 128 -162 248 -162 61 0 157 48 222 110 l48 46 11 -35
c19 -59 55 -99 100 -111 57 -16 140 3 184 41 35 31 72 109 60 128 -12 21 -33
11 -40 -19 -16 -72 -80 -104 -121 -59 -18 20 -19 40 -19 298 l0 276 -27 51
c-33 62 -84 109 -158 143 -66 30 -205 39 -280 18z m280 -545 c0 -119 -2 -130
-25 -164 -45 -66 -157 -98 -223 -64 -54 28 -75 62 -80 126 -11 152 35 198 223
219 39 5 78 9 88 10 15 1 17 -11 17 -127z"/>
<path d="M3115 2079 c-38 -10 -103 -18 -142 -18 -64 -1 -73 -3 -73 -20 0 -14
10 -20 43 -24 24 -3 55 -11 70 -16 l27 -11 0 -335 c0 -318 -1 -336 -19 -354
-11 -11 -37 -23 -58 -26 -56 -10 -63 -13 -63 -30 0 -13 30 -15 231 -15 213 0
230 1 227 17 -2 13 -18 20 -56 25 -100 15 -93 -7 -90 287 l3 258 36 54 c75
113 208 169 286 120 74 -47 93 -136 93 -442 0 -192 -2 -230 -15 -243 -14 -14
-58 -29 -110 -38 -11 -2 -21 -10 -23 -18 -2 -13 30 -15 228 -17 220 -1 230 0
230 18 0 14 -7 19 -25 19 -42 0 -105 30 -110 54 -3 11 -6 140 -7 286 -3 253
-4 267 -26 316 -48 105 -141 164 -260 165 -93 1 -149 -28 -234 -120 l-65 -70
-7 61 c-3 33 -6 76 -6 94 0 18 -3 35 -7 37 -5 2 -39 -4 -78 -14z"/>
<path d="M12390 2090 c0 -5 5 -10 10 -10 6 0 10 5 10 10 0 6 -4 10 -10 10 -5
0 -10 -4 -10 -10z"/>
<path d="M12425 2090 c3 -5 12 -7 20 -3 21 7 19 13 -6 13 -11 0 -18 -4 -14
-10z"/>
<path d="M13060 2090 c0 -5 5 -10 10 -10 6 0 10 5 10 10 0 6 -4 10 -10 10 -5
0 -10 -4 -10 -10z"/>
<path d="M13095 2090 c3 -5 12 -7 20 -3 21 7 19 13 -6 13 -11 0 -18 -4 -14
-10z"/>
<path d="M15803 2085 c-233 -51 -363 -253 -332 -517 15 -129 45 -194 124 -267
147 -136 402 -145 547 -21 42 36 108 122 108 141 0 4 -13 17 -30 29 l-30 21
-11 -28 c-19 -50 -88 -132 -135 -159 -35 -21 -64 -28 -120 -32 -67 -4 -78 -2
-112 20 -70 47 -132 210 -132 350 l0 68 286 0 286 0 -4 88 c-4 68 -10 98 -31
138 -49 95 -129 152 -247 174 -66 13 -89 12 -167 -5z m171 -68 c56 -43 79 -97
84 -199 l4 -88 -191 0 -192 0 7 58 c12 103 43 183 85 225 38 39 40 39 103 35
50 -3 71 -10 100 -31z"/>
<path d="M12435 2040 c-3 -6 1 -7 9 -4 18 7 21 14 7 14 -6 0 -13 -4 -16 -10z"/>
<path d="M13105 2040 c-3 -6 1 -7 9 -4 18 7 21 14 7 14 -6 0 -13 -4 -16 -10z"/>
<path d="M12180 1449 c0 -5 5 -7 10 -4 6 3 10 8 10 11 0 2 -4 4 -10 4 -5 0
-10 -5 -10 -11z"/>
<path d="M12210 1451 c0 -5 9 -7 20 -4 11 3 20 7 20 9 0 2 -9 4 -20 4 -11 0
-20 -4 -20 -9z"/>
<path d="M13270 1450 c0 -11 14 -11 50 0 22 7 21 8 -12 9 -21 1 -38 -3 -38 -9z"/>
<path d="M13301 1406 c-10 -11 -9 -14 1 -12 14 2 23 15 15 22 -2 2 -10 -2 -16
-10z"/>
<path d="M12750 1061 c0 -4 11 -6 25 -3 14 2 25 6 25 8 0 2 -11 4 -25 4 -14 0
-25 -4 -25 -9z"/>
<path d="M12773 1005 c0 -7 8 -10 19 -7 10 2 18 6 18 7 0 1 -8 5 -18 7 -11 3
-19 0 -19 -7z"/>
</g>
</svg>
